<?xml version="1.0" encoding="UTF-8"?>
<svg width="16px" height="16px" viewBox="0 0 16 16" version="1.1" xmlns="http://www.w3.org/2000/svg" xmlns:xlink="http://www.w3.org/1999/xlink">
    <!-- Generator: Sketch 44.1 (41455) - http://www.bohemiancoding.com/sketch -->
    <title>star_rated</title>
    <desc>Created with Sketch.</desc>
    <defs></defs>
    <g id="UI" stroke="none" stroke-width="1" fill="none" fill-rule="evenodd">
        <g id="H04_-我的订单-评价" transform="translate(-195.000000, -161.000000)" fill-rule="nonzero" fill="#DEAE26">
            <g id="Group-4" transform="translate(0.000000, 64.000000)">
                <g id="star" transform="translate(99.000000, 97.000000)">
                    <g id="Group-9" transform="translate(96.000000, 0.000000)">
                        <path d="M3.09161717,10.2054149 C3.08057367,10.8686034 3.21095778,13.6459065 3.21248143,13.671525 C3.22941872,14.0031842 3.32956609,14.262854 3.51057311,14.443861 C3.68382015,14.617108 4.00393977,14.7916425 4.55023252,14.6431754 C5.59656527,14.3586666 7.404722,13.8243977 7.96171572,13.6585209 C8.75017401,13.8923241 10.3240197,14.3510484 11.3015757,14.614545 C11.7141063,14.7255115 12.0521908,14.6862746 12.3089904,14.4965627 C12.5596837,14.3130989 12.6953119,14.0149009 12.7122374,13.6104019 C12.7573917,12.5204976 12.7933687,10.7252387 12.8040933,10.1700403 C13.1222641,9.73916683 14.3983133,7.88122579 14.7458822,7.35778776 C15.0535292,6.89539013 15.0194538,6.36297557 14.6577941,6.00131588 C14.5383118,5.88183353 14.3870572,5.78753271 14.2078928,5.72118907 C13.1767493,5.3426157 11.4396252,4.73844795 10.9038917,4.55294086 C10.5473345,4.08720065 9.42569337,2.66257801 8.71955931,1.7994964 C8.69669278,1.77211798 8.67317663,1.74541281 8.64884551,1.72108168 C8.44021204,1.51244822 8.16056949,1.40661964 7.8610959,1.42300181 C7.55406312,1.43888791 7.25773131,1.58857156 7.06833832,1.82367398 C6.44079616,2.60190375 5.45212581,3.87255527 4.91141976,4.57004351 C4.42336816,4.73666445 2.62905418,5.36778542 1.6111983,5.74592177 C1.15033613,5.91613333 0.972907915,6.20269725 0.905808349,6.41342131 C0.814495773,6.69283944 0.86549664,7.00628572 1.04463748,7.27316033 C1.65649434,8.17772296 2.75225707,9.72611543 3.09161717,10.2054149 L3.09161717,10.2054149 Z" id="Shape"></path>
                    </g>
                </g>
            </g>
        </g>
    </g>
</svg>